<?xml version="1.0" encoding="UTF-8"?>
<!DOCTYPE svg PUBLIC "-//W3C//DTD SVG 1.1//EN" "http://www.w3.org/Graphics/SVG/1.1/DTD/svg11.dtd">
<!-- Creator: CorelDRAW 2019 (64-Bit) -->
<svg xmlns="http://www.w3.org/2000/svg" xml:space="preserve" width="29.247mm" height="4.514mm" version="1.1" style="shape-rendering:geometricPrecision; text-rendering:geometricPrecision; image-rendering:optimizeQuality; fill-rule:evenodd; clip-rule:evenodd"
viewBox="0 0 6.95 1.07"
 xmlns:xlink="http://www.w3.org/1999/xlink"
 xmlns:xodm="http://www.corel.com/coreldraw/odm/2003">
 <defs>
  <style type="text/css">
   <![CDATA[
    .fil0 {fill:url(#id0);fill-rule:nonzero}
   ]]>
  </style>
  <linearGradient id="id0" gradientUnits="userSpaceOnUse" x1="3.21" y1="1.54" x2="3.74" y2="-0.46">
   <stop offset="0" style="stop-opacity:1; stop-color:#B29664"/>
   <stop offset="0.0980392" style="stop-opacity:1; stop-color:#B29664"/>
   <stop offset="0.501961" style="stop-opacity:1; stop-color:#F9D957"/>
   <stop offset="1" style="stop-opacity:1; stop-color:#B29664"/>
  </linearGradient>
 </defs>
 <g id="Слой_x0020_1">
  <metadata id="CorelCorpID_0Corel-Layer"/>
  <path class="fil0" d="M-0 0.06l0.2 0 0.31 0.43 0.31 -0.43 0.2 0 0 0.99 -0.22 0 0 -0.61 -0.29 0.4 -0.29 -0.4 0 0.61 -0.22 0 0 -0.99zm1.31 0.2c-0.04,0 -0.07,-0.01 -0.09,-0.04 -0.03,-0.03 -0.04,-0.06 -0.04,-0.09 0,-0.04 0.01,-0.07 0.04,-0.09 0.03,-0.03 0.06,-0.04 0.09,-0.04 0.04,0 0.07,0.01 0.09,0.04 0.03,0.03 0.04,0.06 0.04,0.09 0,0.04 -0.01,0.07 -0.04,0.09 -0.03,0.03 -0.06,0.04 -0.09,0.04zm-0.1 0.79l0 -0.7 0.21 0 0 0.7 -0.21 0zm0.85 0l-0.26 -0.31 0 0.31 -0.21 0 0 -1.05 0.21 0 0 0.6 0.2 -0.25 0.25 0 -0.26 0.32 0.32 0.38 -0.26 0zm0.78 0l-0.26 -0.31 0 0.31 -0.21 0 0 -1.05 0.21 0 0 0.6 0.2 -0.25 0.25 0 -0.26 0.32 0.32 0.38 -0.26 0zm0.85 -0.09c-0.07,0.07 -0.16,0.11 -0.26,0.11 -0.1,0 -0.19,-0.04 -0.26,-0.11 -0.07,-0.07 -0.11,-0.16 -0.11,-0.26 0,-0.1 0.04,-0.19 0.11,-0.26 0.07,-0.07 0.16,-0.11 0.26,-0.11 0.1,0 0.19,0.04 0.26,0.11 0.07,0.07 0.11,0.16 0.11,0.26 0,0.1 -0.04,0.19 -0.11,0.26zm-0.37 -0.14c0.03,0.03 0.07,0.05 0.11,0.05 0.04,0 0.08,-0.02 0.11,-0.05 0.03,-0.03 0.04,-0.07 0.04,-0.12 0,-0.05 -0.01,-0.09 -0.04,-0.12 -0.03,-0.03 -0.07,-0.05 -0.11,-0.05 -0.04,0 -0.08,0.02 -0.11,0.05 -0.03,0.03 -0.04,0.07 -0.04,0.12 0,0.05 0.01,0.09 0.04,0.12zm1.08 0.24c-0.14,0 -0.26,-0.05 -0.36,-0.15 -0.1,-0.1 -0.15,-0.22 -0.15,-0.36 0,-0.14 0.05,-0.26 0.15,-0.36 0.1,-0.1 0.22,-0.15 0.36,-0.15 0.1,0 0.19,0.02 0.28,0.07 0.08,0.05 0.14,0.11 0.19,0.2l-0.2 0.11c-0.06,-0.11 -0.15,-0.16 -0.27,-0.16 -0.08,0 -0.15,0.03 -0.2,0.09 -0.06,0.06 -0.08,0.13 -0.08,0.21 0,0.08 0.03,0.15 0.08,0.21 0.06,0.06 0.12,0.09 0.2,0.09 0.12,0 0.21,-0.05 0.27,-0.16l0.2 0.11c-0.04,0.08 -0.11,0.15 -0.19,0.2 -0.08,0.05 -0.17,0.07 -0.28,0.07zm0.59 -0.02l0 -0.99 0.39 0c0.09,0 0.17,0.03 0.22,0.09 0.06,0.06 0.09,0.13 0.09,0.21 0,0.12 -0.06,0.21 -0.19,0.26l0.35 0.44 -0.27 0 -0.33 -0.41 -0.03 0 0 0.41 -0.22 0zm0.22 -0.6l0.14 0c0.03,0 0.06,-0.01 0.08,-0.03 0.02,-0.02 0.03,-0.04 0.03,-0.07 0,-0.03 -0.01,-0.05 -0.03,-0.07 -0.02,-0.02 -0.05,-0.03 -0.08,-0.03l-0.14 0 0 0.19zm0.7 -0.39l0.2 0 0.31 0.43 0.31 -0.43 0.2 0 0 0.99 -0.22 0 0 -0.61 -0.29 0.4 -0.29 -0.4 0 0.61 -0.22 0 0 -0.99z"/>
 </g>
</svg>
