<?xml version="1.0" encoding="UTF-8"?>
<!DOCTYPE svg PUBLIC "-//W3C//DTD SVG 1.1//EN" "http://www.w3.org/Graphics/SVG/1.1/DTD/svg11.dtd">
<!-- Creator: CorelDRAW 2019 (64-Bit) -->
<svg xmlns="http://www.w3.org/2000/svg" xml:space="preserve" width="300mm" height="245.453mm" version="1.1" style="shape-rendering:geometricPrecision; text-rendering:geometricPrecision; image-rendering:optimizeQuality; fill-rule:evenodd; clip-rule:evenodd"
viewBox="0 0 83.68 68.46"
 xmlns:xlink="http://www.w3.org/1999/xlink"
 xmlns:xodm="http://www.corel.com/coreldraw/odm/2003">
 <defs>
  <style type="text/css">
   <![CDATA[
    .fil0 {fill:url(#id0)}
   ]]>
  </style>
  <linearGradient id="id0" gradientUnits="userSpaceOnUse" x1="9.59" y1="56.99" x2="74.09" y2="11.47">
   <stop offset="0" style="stop-opacity:1; stop-color:#F9D957"/>
   <stop offset="0.0980392" style="stop-opacity:1; stop-color:#F9D957"/>
   <stop offset="0.501961" style="stop-opacity:1; stop-color:white"/>
   <stop offset="1" style="stop-opacity:1; stop-color:#F9D957"/>
  </linearGradient>
 </defs>
 <g id="Слой_x0020_1">
  <metadata id="CorelCorpID_0Corel-Layer"/>
  <path class="fil0" d="M41.84 0c18.91,0 34.23,15.33 34.23,34.23 0,18.91 -15.33,34.23 -34.23,34.23 -18.91,0 -34.23,-15.33 -34.23,-34.23 0,-18.91 15.33,-34.23 34.23,-34.23zm0 1.9c17.86,0 32.33,14.47 32.33,32.33 0,17.86 -14.47,32.33 -32.33,32.33 -17.86,0 -32.33,-14.47 -32.33,-32.33 0,-17.86 14.47,-32.33 32.33,-32.33zm0 3.59c15.87,0 28.74,12.87 28.74,28.74 0,15.87 -12.87,28.74 -28.74,28.74 -15.87,0 -28.74,-12.87 -28.74,-28.74 0,-15.87 12.87,-28.74 28.74,-28.74zm0 -1.69c16.81,0 30.43,13.62 30.43,30.43 0,16.81 -13.62,30.43 -30.43,30.43 -16.81,0 -30.43,-13.62 -30.43,-30.43 0,-16.81 13.62,-30.43 30.43,-30.43zm39.56 28.15c1.26,0 2.28,1.02 2.28,2.28 0,1.26 -1.02,2.28 -2.28,2.28 -1.26,0 -2.28,-1.02 -2.28,-2.28 0,-1.26 1.02,-2.28 2.28,-2.28zm-41.47 29.05l0 -34.13 -8.02 -7.98c-1.4,-1.39 -3.47,-1.98 -5.72,-2.25l0 39.4c-1.24,-0.89 -2.4,-1.89 -3.47,-2.97l0 -37.66c0.7,-0.71 1.44,-1.39 2.22,-2.02 2.96,-0.28 4.9,0.17 6.89,1.42 2.17,1.36 3.49,2.87 4.89,4.17 2.07,1.93 3.77,3.61 5.13,5.08 1.36,-1.47 3.06,-3.15 5.13,-5.08 1.4,-1.3 2.72,-2.8 4.89,-4.17 1.98,-1.24 3.92,-1.7 6.85,-1.43 0.79,0.64 1.55,1.33 2.26,2.06l0 1.2 0 36.39c-1.07,1.09 -2.23,2.09 -3.47,2.98l0 -39.37c-2.25,0.28 -4.31,0.86 -5.72,2.25l-8.02 7.98 0 34.13c-0.64,0.05 -1.29,0.07 -1.95,0.07 -0.64,0 -1.28,-0.02 -1.91,-0.07zm-24.63 -30.75l0 7.97c0.33,2.19 0.91,4.29 1.73,6.27l0 -20.5c-0.82,1.98 -1.41,4.08 -1.73,6.27zm3.71 -10.13l0 28.22c0.53,0.86 1.11,1.69 1.73,2.48l0 -33.18c-0.62,0.79 -1.2,1.62 -1.73,2.48zm49.41 10.4l0 7.42c-0.31,2.25 -0.9,4.41 -1.73,6.45l0 -20.31c0.83,2.04 1.42,4.2 1.73,6.45zm-3.71 -10.34l0 28.1c-0.53,0.86 -1.11,1.7 -1.73,2.49l0 -33.08c0.62,0.8 1.2,1.63 1.73,2.49zm-11.92 38.56l0 -31.84 0 -5.97 -3.47 3.55 0 2.43 0 33.12c1.19,-0.35 2.35,-0.77 3.47,-1.27zm-10.99 -49.05c1.83,0 3.31,1.48 3.31,3.31 0,1.83 -1.48,3.31 -3.31,3.31 -1.83,0 -3.31,-1.48 -3.31,-3.31 0,-1.83 1.48,-3.31 3.31,-3.31zm-10.87 49.07l0 -31.86 0 -5.97 3.47 3.55 0 2.43 0 33.13c-1.19,-0.34 -2.35,-0.77 -3.47,-1.27zm-28.64 -26.81c1.26,0 2.28,1.02 2.28,2.28 0,1.26 -1.02,2.28 -2.28,2.28 -1.26,0 -2.28,-1.02 -2.28,-2.28 0,-1.26 1.02,-2.28 2.28,-2.28z"/>
 </g>
</svg>
